<?xml version="1.0" encoding="UTF-8" standalone="no"?>
<svg
   xmlns:dc="http://purl.org/dc/elements/1.1/"
   xmlns:cc="http://creativecommons.org/ns#"
   xmlns:rdf="http://www.w3.org/1999/02/22-rdf-syntax-ns#"
   xmlns:svg="http://www.w3.org/2000/svg"
   xmlns="http://www.w3.org/2000/svg"
   viewBox="0 0 925.17706 573.14587"
   height="573.14587"
   width="925.17706"
   xml:space="preserve"
   id="svg2"
   version="1.1"><metadata
     id="metadata8"><rdf:RDF><cc:Work
         rdf:about=""><dc:format>image/svg+xml</dc:format><dc:type
           rdf:resource="http://purl.org/dc/dcmitype/StillImage" /></cc:Work></rdf:RDF></metadata><defs
     id="defs6"><clipPath
       id="clipPath14"
       clipPathUnits="userSpaceOnUse"><path
         id="path12"
         d="M 0,0 H 1024 V 768 H 0 Z" /></clipPath><clipPath
       id="clipPath24"
       clipPathUnits="userSpaceOnUse"><path
         id="path22"
         d="M 0,0 H 1024 V 768 H 0 Z" /></clipPath></defs><g
     clip-path="url(#clipPath14)"
     transform="matrix(1.3333333,0,0,-1.3333333,-236.33333,722.0052)"
     id="g10"><g
       id="g16" /><g
       id="g18"><g
         clip-path="url(#clipPath24)"
         id="g20"><path
           id="path26"
           style="fill:#ffffff;fill-opacity:1;fill-rule:evenodd;stroke:none"
           d="M 0,6.103516e-5 H 1024 V 767.99996 H 0 Z" /><path
           id="path28"
           style="fill:#e3e4e6;fill-opacity:1;fill-rule:evenodd;stroke:none"
           d="M 606.7049,216.7387 H 865.2275 V 475.2613 H 606.7049 Z" /><g
           transform="matrix(7.874014e-5,0,0,-7.874014e-5,606.7049,475.2613)"
           id="g30"><path
             id="path32"
             style="fill:none;stroke:#000000;stroke-width:12700;stroke-linecap:butt;stroke-linejoin:miter;stroke-miterlimit:4;stroke-dasharray:none;stroke-opacity:1"
             d="M -0.1482815,0.2820824 H 3283236.9 V 3283238.3 H -0.1482815 Z" /></g><path
           id="path34"
           style="fill:#fffb00;fill-opacity:1;fill-rule:evenodd;stroke:none"
           d="m 793.626,292.0397 c 3.06,-3.0591 3.06,-8.0195 0,-11.0786 -3.059,-3.0599 -8.0195,-3.0599 -11.0786,0 -3.0599,3.0591 -3.0599,8.0195 0,11.0786 3.0591,3.0599 8.0196,3.0599 11.0786,0 z" /><path
           id="path36"
           style="fill:#009d19;fill-opacity:1;fill-rule:evenodd;stroke:none"
           d="m 667.9188,414.5461 c 3.0599,-3.059 3.0599,-8.0195 0,-11.0786 -3.0591,-3.0598 -8.0196,-3.0598 -11.0787,0 -3.0599,3.0591 -3.0599,8.0196 0,11.0786 3.0591,3.0599 8.0196,3.0599 11.0787,0 z" /><path
           id="path38"
           style="fill:#009d19;fill-opacity:1;fill-rule:evenodd;stroke:none"
           d="m 650.8279,444.651 c 3.0599,-3.0591 3.0599,-8.0195 0,-11.0786 -3.059,-3.0599 -8.0195,-3.0599 -11.0786,0 -3.0598,3.0591 -3.0598,8.0195 0,11.0786 3.0591,3.0599 8.0196,3.0599 11.0786,0 z" /><path
           id="path40"
           style="fill:#fffb00;fill-opacity:1;fill-rule:evenodd;stroke:none"
           d="m 829.0303,281.5397 c 3.0598,-3.0591 3.0598,-8.0195 0,-11.0786 -3.0591,-3.0599 -8.0196,-3.0599 -11.0786,0 -3.0599,3.0591 -3.0599,8.0195 0,11.0786 3.059,3.0599 8.0195,3.0599 11.0786,0 z" /><path
           id="path42"
           style="fill:#fffb00;fill-opacity:1;fill-rule:evenodd;stroke:none"
           d="m 773.875,313.6337 c 3.0599,-3.0591 3.0599,-8.0195 0,-11.0786 -3.0591,-3.0599 -8.0195,-3.0599 -11.0786,0 -3.0599,3.0591 -3.0599,8.0195 0,11.0786 3.0591,3.0599 8.0195,3.0599 11.0786,0 z" /><path
           id="path44"
           style="fill:#d43a00;fill-opacity:1;fill-rule:evenodd;stroke:none"
           d="m 732.3731,385.8551 c 3.0599,-3.0591 3.0599,-8.0196 0,-11.0786 -3.0591,-3.0599 -8.0195,-3.0599 -11.0786,0 -3.0599,3.059 -3.0599,8.0195 0,11.0786 3.0591,3.0598 8.0195,3.0598 11.0786,0 z" /><path
           id="path46"
           style="fill:#e3e4e6;fill-opacity:1;fill-rule:evenodd;stroke:none"
           d="M 184.8774,216.7387 H 443.4 V 475.2613 H 184.8774 Z" /><g
           transform="matrix(7.874014e-5,0,0,-7.874014e-5,184.8774,475.2613)"
           id="g48"><path
             id="path50"
             style="fill:none;stroke:#000000;stroke-width:12700;stroke-linecap:butt;stroke-linejoin:miter;stroke-miterlimit:4;stroke-dasharray:none;stroke-opacity:1"
             d="M -0.1581985,0.2820824 H 3283236.8 V 3283238.3 H -0.1581985 Z" /></g><g
           transform="translate(74.99999,695.9999)"
           id="g52"><text
             id="text56"
             style="font-variant:normal;font-weight:300;font-size:80px;font-family:Helvetica;-inkscape-font-specification:Helvetica-Light;writing-mode:lr-tb;fill:#000000;fill-opacity:1;fill-rule:nonzero;stroke:none"
             transform="matrix(1,0,0,-1,37.09314,-80)"><tspan
               id="tspan54"
               y="0"
               x="0 57.759998 102.24 124.48 168.96001 213.44 235.67999 253.44 297.92001 346.79999 369.04001 417.92001 462.39999 502.39999 524.64001 542.40002 586.88 631.35999 653.59998 671.35999 715.84003 760.32001">Detecting destinations</tspan></text>
</g><g
           transform="translate(74.99999,695.9999)"
           id="g58"><text
             id="text62"
             style="font-variant:normal;font-weight:300;font-size:80px;font-family:Helvetica;-inkscape-font-specification:Helvetica-Light;writing-mode:lr-tb;fill:#000000;fill-opacity:1;fill-rule:nonzero;stroke:none"
             transform="matrix(1,0,0,-1,837.4131,-80)"><tspan
               id="tspan60"
               y="0"
               x="0">!</tspan></text>
</g><g
           transform="translate(505.9959,39.50005)"
           id="g64"><text
             id="text68"
             style="font-variant:normal;font-weight:300;font-size:18px;font-family:Helvetica;-inkscape-font-specification:Helvetica-Light;writing-mode:lr-tb;fill:#000000;fill-opacity:1;fill-rule:nonzero;stroke:none"
             transform="matrix(1,0,0,-1,0,-18)"><tspan
               id="tspan66"
               y="0"
               x="0">9</tspan></text>
</g><g
           transform="translate(505.9959,39.50005)"
           id="g70"><text
             id="text74"
             style="font-variant:normal;font-weight:300;font-size:18px;font-family:Helvetica;-inkscape-font-specification:Helvetica-Light;writing-mode:lr-tb;fill:#000000;fill-opacity:1;fill-rule:nonzero;stroke:none"
             transform="matrix(1,0,0,-1,10.008,-18)"><tspan
               id="tspan72"
               y="0"
               x="0">!</tspan></text>
</g><path
           id="path76"
           style="fill:#f7a11e;fill-opacity:1;fill-rule:evenodd;stroke:none"
           d="m 371.7985,292.0397 c 3.0599,-3.0591 3.0599,-8.0195 0,-11.0786 -3.0591,-3.0599 -8.0195,-3.0599 -11.0787,0 -3.0598,3.0591 -3.0598,8.0195 0,11.0786 3.0592,3.0599 8.0196,3.0599 11.0787,0 z" /><path
           id="path78"
           style="fill:#f7a11e;fill-opacity:1;fill-rule:evenodd;stroke:none"
           d="m 247.0004,413.637 c 3.0599,-3.0591 3.0599,-8.0195 0,-11.0786 -3.0591,-3.0599 -8.0195,-3.0599 -11.0786,0 -3.0599,3.0591 -3.0599,8.0195 0,11.0786 3.0591,3.0599 8.0195,3.0599 11.0786,0 z" /><path
           id="path80"
           style="fill:#f7a11e;fill-opacity:1;fill-rule:evenodd;stroke:none"
           d="m 229.0004,444.651 c 3.0599,-3.0591 3.0599,-8.0195 0,-11.0786 -3.059,-3.0599 -8.0195,-3.0599 -11.0786,0 -3.0598,3.0591 -3.0598,8.0195 0,11.0786 3.0591,3.0599 8.0196,3.0599 11.0786,0 z" /><path
           id="path82"
           style="fill:#f7a11e;fill-opacity:1;fill-rule:evenodd;stroke:none"
           d="m 407.2028,281.5397 c 3.0599,-3.0591 3.0599,-8.0195 0,-11.0786 -3.0591,-3.0599 -8.0195,-3.0599 -11.0786,0 -3.0599,3.0591 -3.0599,8.0195 0,11.0786 3.0591,3.0599 8.0195,3.0599 11.0786,0 z" /><path
           id="path84"
           style="fill:#f7a11e;fill-opacity:1;fill-rule:evenodd;stroke:none"
           d="m 352.0475,313.6337 c 3.0599,-3.0591 3.0599,-8.0195 0,-11.0786 -3.0591,-3.0599 -8.0195,-3.0599 -11.0787,0 -3.0598,3.0591 -3.0598,8.0195 0,11.0786 3.0592,3.0599 8.0196,3.0599 11.0787,0 z" /><path
           id="path86"
           style="fill:#f7a11e;fill-opacity:1;fill-rule:evenodd;stroke:none"
           d="m 310.5457,385.8551 c 3.0598,-3.0591 3.0598,-8.0196 0,-11.0786 -3.0591,-3.0599 -8.0196,-3.0599 -11.0787,0 -3.0598,3.059 -3.0598,8.0195 0,11.0786 3.0591,3.0598 8.0196,3.0598 11.0787,0 z" /><path
           id="path88"
           style="fill:#ffffff;fill-opacity:1;fill-rule:evenodd;stroke:none"
           d="m 472.6815,346.261 h 71.4496 v 10.3115 l 28.5505,-15.0001 -28.5505,-15 v 10.3115 h -71.4496 z" /><g
           transform="matrix(7.874014e-5,0,0,-7.874014e-5,472.6815,356.5725)"
           id="g90"><path
             id="path92"
             style="fill:none;stroke:#000000;stroke-width:25400;stroke-linecap:butt;stroke-linejoin:miter;stroke-miterlimit:4;stroke-dasharray:none;stroke-opacity:1"
             d="M -0.2911494,130955.9 H 907409.6 V -0.07045412 L 1270001,190500.7 907409.6,381000.8 v -130956 H -0.2911494 Z" /></g><g
           transform="translate(708.5783,464.0103)"
           id="g94"><text
             id="text98"
             style="font-variant:normal;font-weight:normal;font-size:18px;font-family:Arial;-inkscape-font-specification:ArialMT;writing-mode:lr-tb;fill:#000000;fill-opacity:1;fill-rule:nonzero;stroke:none"
             transform="matrix(1,0,0,-1,0,-18)"><tspan
               id="tspan96"
               y="0"
               x="0 12.9996 23.0112 32.0112 37.0116 41.0112 51.0228 61.034401 66.034798 70.034401 80.045998 90.057602">Destination </tspan></text>
</g><g
           transform="translate(708.5783,464.0103)"
           id="g100"><text
             id="text104"
             style="font-variant:normal;font-weight:normal;font-size:18px;font-family:Arial;-inkscape-font-specification:ArialMT;writing-mode:lr-tb;fill:#000000;fill-opacity:1;fill-rule:nonzero;stroke:none"
             transform="matrix(1,0,0,-1,95.05371,-18)"><tspan
               id="tspan102"
               y="0"
               x="0">1</tspan></text>
</g><g
           transform="translate(708.5783,464.0103)"
           id="g106" /><g
           transform="translate(620.6374,330.6964)"
           id="g108"><text
             id="text112"
             style="font-variant:normal;font-weight:normal;font-size:18px;font-family:Arial;-inkscape-font-specification:ArialMT;writing-mode:lr-tb;fill:#000000;fill-opacity:1;fill-rule:nonzero;stroke:none"
             transform="matrix(1,0,0,-1,0,-18)"><tspan
               id="tspan110"
               y="0"
               x="0 12.9996 23.0112 32.0112 37.0116 41.0112 51.0228 61.034401 66.034798 70.034401 80.045998 90.057602">Destination </tspan></text>
</g><g
           transform="translate(620.6374,330.6964)"
           id="g114"><text
             id="text118"
             style="font-variant:normal;font-weight:normal;font-size:18px;font-family:Arial;-inkscape-font-specification:ArialMT;writing-mode:lr-tb;fill:#000000;fill-opacity:1;fill-rule:nonzero;stroke:none"
             transform="matrix(1,0,0,-1,95.05371,-18)"><tspan
               id="tspan116"
               y="0"
               x="0">2</tspan></text>
</g><g
           transform="translate(620.6374,330.6964)"
           id="g120" /><g
           transform="translate(645.6092,266.1209)"
           id="g122"><text
             id="text126"
             style="font-variant:normal;font-weight:normal;font-size:18px;font-family:Arial;-inkscape-font-specification:ArialMT;writing-mode:lr-tb;fill:#000000;fill-opacity:1;fill-rule:nonzero;stroke:none"
             transform="matrix(1,0,0,-1,0,-18)"><tspan
               id="tspan124"
               y="0"
               x="0 12.9996 23.0112 32.0112 37.0116 41.0112 51.0228 61.034401 66.034798 70.034401 80.045998 90.057602 95.057999 105.0696">Destination 3 </tspan></text>
</g><g
           transform="translate(26.98008,58.35003)"
           id="g128"><text
             id="text132"
             style="font-variant:normal;font-weight:300;font-size:16px;font-family:Helvetica;-inkscape-font-specification:Helvetica-Light;writing-mode:lr-tb;fill:#a6aaa9;fill-opacity:1;fill-rule:nonzero;stroke:none"
             transform="matrix(1,0,0,-1,221.1556,-16)"><tspan
               id="tspan130"
               y="0"
               x="0 13.328 22.224001 26.672001 30.224001 38.223999 47.119999 51.568001 55.119999 64.015999">Motivation</tspan></text>
</g><g
           transform="translate(26.98008,58.35003)"
           id="g134" /><g
           transform="translate(26.98008,58.35003)"
           id="g136"><text
             id="text140"
             style="font-variant:normal;font-weight:300;font-size:16px;font-family:Helvetica;-inkscape-font-specification:Helvetica-Light;writing-mode:lr-tb;fill:#a6aaa9;fill-opacity:1;fill-rule:nonzero;stroke:none"
             transform="matrix(1,0,0,-1,298.515,-16)"><tspan
               id="tspan138"
               y="0"
               x="0 5.3280001 9.776 19.552 24.879999 33.776001 41.776001 45.327999 54.223999 63.119999 71.120003 75.568001 86.239998 95.136002 103.136 112.032 120.928 126.256 135.15199 144.048 148.496 153.82401">- Previous Research - </tspan></text>
</g><g
           transform="translate(26.98008,58.35003)"
           id="g142"><text
             id="text146"
             style="font-variant:normal;font-weight:300;font-size:16px;font-family:Helvetica;-inkscape-font-specification:Helvetica-Light;writing-mode:lr-tb;fill:#53585f;fill-opacity:1;fill-rule:nonzero;stroke:#53585f;stroke-width:0.384;stroke-linecap:butt;stroke-linejoin:miter;stroke-miterlimit:10;stroke-dasharray:none;stroke-opacity:1"
             transform="matrix(1,0,0,-1,456.786,-16)"><tspan
               id="tspan144"
               y="0"
               x="0 10.672 19.568001 28.464001 36.464001 46.240002 51.568001 60.464001 69.360001 78.255997">Background</tspan></text>
</g><g
           transform="translate(26.98008,58.35003)"
           id="g148"><text
             id="text152"
             style="font-variant:normal;font-weight:300;font-size:16px;font-family:Helvetica;-inkscape-font-specification:Helvetica-Light;writing-mode:lr-tb;fill:#a6aaa9;fill-opacity:1;fill-rule:nonzero;stroke:none"
             transform="matrix(1,0,0,-1,549.2655,-16)"><tspan
               id="tspan150"
               y="0"
               x="0 5.3280001 9.776 20.448 29.344 37.344002 46.240002 49.792 54.240002 62.240002 66.688004 72.015999 76.463997 85.360001 94.255997 99.584 104.032 112.928 121.824 127.152 131.60001 142.272 151.168 159.168 168.064 176.96001 182.28799 191.18401 200.08">- Results - Further Research </tspan></text>
</g><g
           transform="translate(26.98008,58.35003)"
           id="g154"><text
             id="text158"
             style="font-variant:normal;font-weight:300;font-size:16px;font-family:Helvetica;-inkscape-font-specification:Helvetica-Light;writing-mode:lr-tb;fill:#a6aaa9;fill-opacity:1;fill-rule:nonzero;stroke:none"
             transform="matrix(1,0,0,-1,753.7935,-16)"><tspan
               id="tspan156"
               y="0"
               x="0">!</tspan></text>
</g><path
           id="path160"
           style="fill:#ffffff;fill-opacity:1;fill-rule:evenodd;stroke:none"
           d="m 606.3469,123.8711 h 258.9607 v 83.27464 H 606.3469 Z" /><g
           transform="matrix(7.874014e-5,0,0,-7.874014e-5,606.3469,207.1457)"
           id="g162"><path
             id="path164"
             style="fill:none;stroke:#000000;stroke-width:12700;stroke-linecap:butt;stroke-linejoin:miter;stroke-miterlimit:4;stroke-dasharray:none;stroke-opacity:1"
             d="M -0.1582581,0.07076037 H 3288800.8 V 1057588.1 H -0.1582581 Z" /></g><g
           transform="translate(609.1815,203.9084)"
           id="g166"><text
             id="text170"
             style="font-variant:normal;font-weight:normal;font-size:16px;font-family:Arial;-inkscape-font-specification:ArialMT;writing-mode:lr-tb;fill:#000000;fill-opacity:1;fill-rule:nonzero;stroke:none"
             transform="matrix(1,0,0,-1,0,-16)"><tspan
               id="tspan168"
               y="0"
               x="0 10.672 15.1168 23.1168 26.672001 35.571201 43.571201 48.015999 56.915199 62.243198 66.688004 78.243202 81.798401 86.243202 95.142403 99.587196 108.4864 117.3856 126.2848 130.7296 139.6288 144.9568 149.4016 162.7296 171.6288 176.9568 185.856 190.3008 198.3008 202.74561 211.64481 220.54401">A cluster with one or more stop </tspan></text>
</g><g
           transform="translate(609.1815,184.9084)"
           id="g172"><text
             id="text176"
             style="font-variant:normal;font-weight:normal;font-size:16px;font-family:Arial;-inkscape-font-specification:ArialMT;writing-mode:lr-tb;fill:#000000;fill-opacity:1;fill-rule:nonzero;stroke:none"
             transform="matrix(1,0,0,-1,0,-16)"><tspan
               id="tspan174"
               y="0"
               x="0 3.5552001 12.4544 20.454399 29.3536 33.798401 37.3536 46.2528 55.152 63.152 67.596802 79.152 82.707199 87.152 96.051201 99.6064 108.5056 112.9504 121.8496 126.2944 135.1936 138.74879 146.74879 151.1936 160.0928 168.992 176.992 185.8912">locations within a distance </tspan></text>
</g><g
           transform="translate(609.1815,165.9084)"
           id="g178"><text
             id="text182"
             style="font-variant:normal;font-weight:normal;font-size:16px;font-family:Arial;-inkscape-font-specification:ArialMT;writing-mode:lr-tb;fill:#000000;fill-opacity:1;fill-rule:nonzero;stroke:none"
             transform="matrix(1,0,0,-1,0,-16)"><tspan
               id="tspan180"
               y="0"
               x="0 4.4447999 13.344 18.672001 27.571199 35.571201 44.470402 53.369598 56.924801 65.823997 70.268799 79.167999 83.612801">threshold of </tspan></text>
</g><g
           transform="translate(609.1815,165.9084)"
           id="g184"><text
             id="text188"
             style="font-variant:normal;font-weight:normal;font-size:16px;font-family:Arial;-inkscape-font-specification:ArialMT;writing-mode:lr-tb;fill:#000000;fill-opacity:1;fill-rule:nonzero;stroke:none"
             transform="matrix(1,0,0,-1,88.05469,-16)"><tspan
               id="tspan186"
               y="0"
               x="0 8.8992004 17.798401 22.249599">50 m</tspan></text>
</g><path
           id="path190"
           style="fill:#000000;fill-opacity:1;fill-rule:evenodd;stroke:none"
           d="m 697.1815,147.9084 h 35 v 1 h -35 z" /><g
           transform="translate(609.1815,165.9084)"
           id="g192"><text
             id="text196"
             style="font-variant:normal;font-weight:normal;font-size:16px;font-family:Arial;-inkscape-font-specification:ArialMT;writing-mode:lr-tb;fill:#000000;fill-opacity:1;fill-rule:nonzero;stroke:none"
             transform="matrix(1,0,0,-1,123.625,-16)"><tspan
               id="tspan194"
               y="0"
               x="0 8.8992004 13.344 22.2432 27.571199">eters</tspan></text>
</g><path
           id="path198"
           style="fill:#000000;fill-opacity:1;fill-rule:evenodd;stroke:none"
           d="m 732.1815,147.9084 h 36 v 1 h -36 z" /><g
           transform="translate(609.1815,165.9084)"
           id="g200"><text
             id="text204"
             style="font-variant:normal;font-weight:normal;font-size:16px;font-family:Arial;-inkscape-font-specification:ArialMT;writing-mode:lr-tb;fill:#000000;fill-opacity:1;fill-rule:nonzero;stroke:none"
             transform="matrix(1,0,0,-1,159.1953,-16)"><tspan
               id="tspan202"
               y="0"
               x="0">.</tspan></text>
</g><g
           transform="translate(609.1815,165.9084)"
           id="g206" /><g
           transform="translate(609.1815,165.9084)"
           id="g208"><text
             id="text212"
             style="font-variant:normal;font-weight:bold;font-size:16px;font-family:Arial;-inkscape-font-specification:Arial-BoldMT;writing-mode:lr-tb;fill:#000000;fill-opacity:1;fill-rule:nonzero;stroke:none"
             transform="matrix(1,0,0,-1,168.0859,-16)"><tspan
               id="tspan210"
               y="0"
               x="0">M</tspan></text>
</g><g
           transform="translate(609.1815,165.9084)"
           id="g214"><text
             id="text218"
             style="font-variant:normal;font-weight:normal;font-size:16px;font-family:Arial;-inkscape-font-specification:ArialMT;writing-mode:lr-tb;fill:#000000;fill-opacity:1;fill-rule:nonzero;stroke:none"
             transform="matrix(1,0,0,-1,185.8589,-16)"><tspan
               id="tspan216"
               y="0"
               x="0 8.8992004 17.798401 26.697599 35.596802 40.041599 48.9408 56.9408">denotes </tspan></text>
</g><g
           transform="translate(609.1815,146.9084)"
           id="g220"><text
             id="text224"
             style="font-variant:normal;font-weight:normal;font-size:16px;font-family:Arial;-inkscape-font-specification:ArialMT;writing-mode:lr-tb;fill:#000000;fill-opacity:1;fill-rule:nonzero;stroke:none"
             transform="matrix(1,0,0,-1,0,-16)"><tspan
               id="tspan222"
               y="0"
               x="0 4.4447999 13.3376 22.2304">the </tspan></text>
</g><g
           transform="translate(609.1815,146.9084)"
           id="g226"><text
             id="text230"
             style="font-variant:normal;font-weight:normal;font-size:16px;font-family:Arial;-inkscape-font-specification:ArialMT;writing-mode:lr-tb;fill:#000000;fill-opacity:1;fill-rule:nonzero;stroke:none"
             transform="matrix(1,0,0,-1,26.6875,-16)"><tspan
               id="tspan228"
               y="0"
               x="0 13.328 22.2272 31.1264 40.0256 43.580799">medoid</tspan></text>
</g><g
           transform="translate(609.1815,146.9084)"
           id="g232"><text
             id="text236"
             style="font-variant:normal;font-weight:normal;font-size:16px;font-family:Arial;-inkscape-font-specification:ArialMT;writing-mode:lr-tb;fill:#000000;fill-opacity:1;fill-rule:nonzero;stroke:none"
             transform="matrix(1,0,0,-1,83.60886,-16)"><tspan
               id="tspan234"
               y="0"
               x="0 8.8992004 13.344 17.788799 26.688 35.5872 43.5872 52.486401 56.931198 65.830399 74.729599 82.729599 87.1744 90.729599 99.628799 108.528 112.9728 116.528 125.4272 134.3264 138.77119">of each destination. </tspan></text>
</g><path
           id="path238"
           style="fill:#009638;fill-opacity:1;fill-rule:evenodd;stroke:none"
           d="m 666.5289,501.8933 h 139.061 v 34.80591 h -139.061 z" /><g
           transform="matrix(7.874014e-5,0,0,-7.874014e-5,666.5289,536.6992)"
           id="g240"><path
             id="path242"
             style="fill:none;stroke:#000000;stroke-width:12700;stroke-linecap:butt;stroke-linejoin:miter;stroke-miterlimit:4;stroke-dasharray:none;stroke-opacity:1"
             d="M -0.05389869,-0.1263657 H 1766074.9 V 442034.97 H -0.05389869 Z" /></g><g
           transform="translate(670.3635,533.6962)"
           id="g244"><text
             id="text248"
             style="font-variant:normal;font-weight:normal;font-size:24px;font-family:Arial;-inkscape-font-specification:ArialMT;writing-mode:lr-tb;fill:#ffffff;fill-opacity:1;fill-rule:nonzero;stroke:none"
             transform="matrix(1,0,0,-1,0,-24)"><tspan
               id="tspan246"
               y="0"
               x="0 17.3328">De</tspan></text>
</g><g
           transform="translate(670.3635,533.6962)"
           id="g250"><text
             id="text254"
             style="font-variant:normal;font-weight:normal;font-size:24px;font-family:Arial;-inkscape-font-specification:ArialMT;writing-mode:lr-tb;fill:#ffffff;fill-opacity:1;fill-rule:nonzero;stroke:none"
             transform="matrix(1,0,0,-1,30.67969,-24)"><tspan
               id="tspan252"
               y="0"
               x="0 12 18.6672 24 37.348801 50.697601 57.364799 62.697601 76.046402 89.395203 101.3952">stinations </tspan></text>
</g><path
           id="path256"
           style="fill:#ee9005;fill-opacity:1;fill-rule:evenodd;stroke:none"
           d="m 234.8447,501.8933 h 159.2725 v 34.80591 H 234.8447 Z" /><g
           transform="matrix(7.874014e-5,0,0,-7.874014e-5,234.8447,536.6992)"
           id="g258"><path
             id="path260"
             style="fill:none;stroke:#000000;stroke-width:12700;stroke-linecap:butt;stroke-linejoin:miter;stroke-miterlimit:4;stroke-dasharray:none;stroke-opacity:1"
             d="M -0.1515484,-0.1263657 H 2022760.8 V 442034.97 H -0.1515484 Z" /></g><g
           transform="translate(238.6794,533.6962)"
           id="g262"><text
             id="text266"
             style="font-variant:normal;font-weight:normal;font-size:24px;font-family:Arial;-inkscape-font-specification:ArialMT;writing-mode:lr-tb;fill:#ffffff;fill-opacity:1;fill-rule:nonzero;stroke:none"
             transform="matrix(1,0,0,-1,0,-24)"><tspan
               id="tspan264"
               y="0"
               x="0 16.007999">St</tspan></text>
</g><g
           transform="translate(238.6794,533.6962)"
           id="g268"><text
             id="text272"
             style="font-variant:normal;font-weight:normal;font-size:24px;font-family:Arial;-inkscape-font-specification:ArialMT;writing-mode:lr-tb;fill:#ffffff;fill-opacity:1;fill-rule:nonzero;stroke:none"
             transform="matrix(1,0,0,-1,22.67578,-24)"><tspan
               id="tspan270"
               y="0"
               x="0 13.3488 26.697599 33.364799 38.697601 52.046398 64.046402 77.395203 84.062401 89.395203 102.744 116.0928 128.0928">op locations </tspan></text>
</g><path
           id="path274"
           style="fill:#ffffff;fill-opacity:1;fill-rule:evenodd;stroke:none"
           d="m 185.2727,133.5647 h 257.908 v 63.88716 h -257.908 z" /><g
           transform="matrix(7.874014e-5,0,0,-7.874014e-5,185.2727,197.4519)"
           id="g276"><path
             id="path278"
             style="fill:none;stroke:#000000;stroke-width:12700;stroke-linecap:butt;stroke-linejoin:miter;stroke-miterlimit:4;stroke-dasharray:none;stroke-opacity:1"
             d="M -0.115007,-0.07021856 H 3275431.9 V 811367.03 H -0.115007 Z" /></g><g
           transform="translate(188.1073,194.3083)"
           id="g280"><text
             id="text284"
             style="font-variant:normal;font-weight:normal;font-size:16px;font-family:Arial;-inkscape-font-specification:ArialMT;writing-mode:lr-tb;fill:#000000;fill-opacity:1;fill-rule:nonzero;stroke:none"
             transform="matrix(1,0,0,-1,0,-16)"><tspan
               id="tspan282"
               y="0"
               x="0 10.672 15.1168 18.672001 27.571199 35.571201 44.470402 48.915199 52.470402 61.369598 70.268799 74.7136 86.268799 89.823997 94.268799 103.168 107.6128 116.512 120.9568 125.4016 128.9568 137.856 146.7552 154.7552 159.2 163.64481 168.0896 179.64481 188.54401 192.9888 201.888 210.7872 218.7872 222.34241 226.7872 230.34241 239.24159">A location with at least two position</tspan></text>
</g><g
           transform="translate(188.1073,194.3083)"
           id="g286" /><g
           transform="translate(188.1073,175.3083)"
           id="g288"><text
             id="text292"
             style="font-variant:normal;font-weight:normal;font-size:16px;font-family:Arial;-inkscape-font-specification:ArialMT;writing-mode:lr-tb;fill:#000000;fill-opacity:1;fill-rule:nonzero;stroke:none"
             transform="matrix(1,0,0,-1,0,-16)"><tspan
               id="tspan290"
               y="0"
               x="0 13.328 22.2272 27.555201 36.454399 40.8992 45.344002 54.243198 63.142399 72.041603">more than </tspan></text>
</g><g
           transform="translate(188.1073,175.3083)"
           id="g294"><text
             id="text298"
             style="font-variant:normal;font-weight:normal;font-size:16px;font-family:Arial;-inkscape-font-specification:ArialMT;writing-mode:lr-tb;fill:#000000;fill-opacity:1;fill-rule:nonzero;stroke:none"
             transform="matrix(1,0,0,-1,76.48438,-16)"><tspan
               id="tspan296"
               y="0"
               x="0 8.8992004">10</tspan></text>
</g><g
           transform="translate(188.1073,175.3083)"
           id="g300" /><g
           transform="translate(188.1073,175.3083)"
           id="g302"><text
             id="text306"
             style="font-variant:normal;font-weight:normal;font-size:16px;font-family:Arial;-inkscape-font-specification:ArialMT;writing-mode:lr-tb;fill:#000000;fill-opacity:1;fill-rule:nonzero;stroke:none"
             transform="matrix(1,0,0,-1,98.72656,-16)"><tspan
               id="tspan304"
               y="0"
               x="0 13.328 16.8832 25.7824 34.681599 39.1264 48.0256">minutes</tspan></text>
</g><path
           id="path308"
           style="fill:#000000;fill-opacity:1;fill-rule:evenodd;stroke:none"
           d="m 264.1073,157.3083 h 78.99997 v 1 H 264.1073 Z" /><g
           transform="translate(188.1073,175.3083)"
           id="g310"><text
             id="text314"
             style="font-variant:normal;font-weight:normal;font-size:16px;font-family:Arial;-inkscape-font-specification:ArialMT;writing-mode:lr-tb;fill:#000000;fill-opacity:1;fill-rule:nonzero;stroke:none"
             transform="matrix(1,0,0,-1,159.1948,-16)"><tspan
               id="tspan312"
               y="0"
               x="0 8.8992004 17.798401 26.697599 32.0256">apart</tspan></text>
</g><g
           transform="translate(188.1073,175.3083)"
           id="g316" /><g
           transform="translate(188.1073,175.3083)"
           id="g318"><text
             id="text322"
             style="font-variant:normal;font-weight:normal;font-size:16px;font-family:Arial;-inkscape-font-specification:ArialMT;writing-mode:lr-tb;fill:#000000;fill-opacity:1;fill-rule:nonzero;stroke:none"
             transform="matrix(1,0,0,-1,200.1094,-16)"><tspan
               id="tspan320"
               y="0"
               x="0 11.5552 15.1104 19.5616 28.4608 32.015999 40.915199">within </tspan></text>
</g><g
           transform="translate(188.1073,156.3083)"
           id="g324"><text
             id="text328"
             style="font-variant:normal;font-weight:normal;font-size:16px;font-family:Arial;-inkscape-font-specification:ArialMT;writing-mode:lr-tb;fill:#000000;fill-opacity:1;fill-rule:nonzero;stroke:none"
             transform="matrix(1,0,0,-1,0,-16)"><tspan
               id="tspan326"
               y="0"
               x="0">a</tspan></text>
</g><g
           transform="translate(188.1073,156.3083)"
           id="g330" /><g
           transform="translate(188.1073,156.3083)"
           id="g332"><text
             id="text336"
             style="font-variant:normal;font-weight:normal;font-size:16px;font-family:Arial;-inkscape-font-specification:ArialMT;writing-mode:lr-tb;fill:#000000;fill-opacity:1;fill-rule:nonzero;stroke:none"
             transform="matrix(1,0,0,-1,13.34375,-16)"><tspan
               id="tspan334"
               y="0"
               x="0 8.8992004 12.4544 20.454399 24.8992 33.798401 42.697601 50.697601 59.596802 64.041603 72.940804 77.385597">distance of </tspan></text>
</g><g
           transform="translate(188.1073,156.3083)"
           id="g338"><text
             id="text342"
             style="font-variant:normal;font-weight:normal;font-size:16px;font-family:Arial;-inkscape-font-specification:ArialMT;writing-mode:lr-tb;fill:#000000;fill-opacity:1;fill-rule:nonzero;stroke:none"
             transform="matrix(1,0,0,-1,95.17188,-16)"><tspan
               id="tspan340"
               y="0"
               x="0 8.8992004 17.798401 22.2432 35.571201 44.470402 48.915199 57.8144 63.142399">50 meters</tspan></text>
</g><path
           id="path344"
           style="fill:#000000;fill-opacity:1;fill-rule:evenodd;stroke:none"
           d="m 283.1073,138.3083 h 70.99997 v 1 H 283.1073 Z" /><g
           transform="translate(188.1073,156.3083)"
           id="g346"><text
             id="text350"
             style="font-variant:normal;font-weight:normal;font-size:16px;font-family:Arial;-inkscape-font-specification:ArialMT;writing-mode:lr-tb;fill:#000000;fill-opacity:1;fill-rule:nonzero;stroke:none"
             transform="matrix(1,0,0,-1,166.3125,-16)"><tspan
               id="tspan348"
               y="0"
               x="0 4.4447999">. </tspan></text>
</g><g
           transform="translate(526.6546,39.50005)"
           id="g352"><text
             id="text356"
             style="font-variant:normal;font-weight:300;font-size:18px;font-family:Helvetica;-inkscape-font-specification:Helvetica-Light;writing-mode:lr-tb;fill:#000000;fill-opacity:1;fill-rule:nonzero;stroke:none"
             transform="matrix(1,0,0,-1,0,-18)"><tspan
               id="tspan354"
               y="0"
               x="0 5.0040002 10.008 20.016001">/ 24</tspan></text>
</g><g
           transform="translate(526.6546,39.50005)"
           id="g358"><text
             id="text362"
             style="font-variant:normal;font-weight:300;font-size:18px;font-family:Helvetica;-inkscape-font-specification:Helvetica-Light;writing-mode:lr-tb;fill:#000000;fill-opacity:1;fill-rule:nonzero;stroke:none"
             transform="matrix(1,0,0,-1,30.024,-18)"><tspan
               id="tspan360"
               y="0"
               x="0">!</tspan></text>
</g><g
           transform="translate(783.4101,294.1883)"
           id="g364"><text
             id="text368"
             style="font-variant:normal;font-weight:normal;font-size:12px;font-family:Arial;-inkscape-font-specification:ArialMT;writing-mode:lr-tb;fill:#000000;fill-opacity:1;fill-rule:nonzero;stroke:none"
             transform="matrix(1,0,0,-1,0,-12)"><tspan
               id="tspan366"
               y="0"
               x="0 9.9960003">M </tspan></text>
</g><g
           transform="matrix(7.874014e-5,0,0,-7.874014e-5,746.3801,337.9727)"
           id="g370"><path
             id="path372"
             style="fill:none;stroke:#fffb00;stroke-width:28575;stroke-linecap:butt;stroke-linejoin:miter;stroke-miterlimit:4;stroke-dasharray:85725, 28575;stroke-dashoffset:0;stroke-opacity:1"
             d="M 0.07007837,600376.9 C 0.07007837,268797.9 268797.7,-0.05719775 600376.7,-0.05719775 931955.8,-0.05719775 1200754,268797.9 1200754,600376.9 1200754,931956 931955.8,1200754 600376.7,1200754 268797.7,1200754 0.07007837,931956 0.07007837,600376.9 Z" /></g><g
           transform="translate(721.9843,388.2238)"
           id="g374"><text
             id="text378"
             style="font-variant:normal;font-weight:normal;font-size:12px;font-family:Arial;-inkscape-font-specification:ArialMT;writing-mode:lr-tb;fill:#000000;fill-opacity:1;fill-rule:nonzero;stroke:none"
             transform="matrix(1,0,0,-1,0,-12)"><tspan
               id="tspan376"
               y="0"
               x="0 9.9960003">M </tspan></text>
</g><g
           transform="translate(657.4879,416.8725)"
           id="g380"><text
             id="text384"
             style="font-variant:normal;font-weight:normal;font-size:12px;font-family:Arial;-inkscape-font-specification:ArialMT;writing-mode:lr-tb;fill:#000000;fill-opacity:1;fill-rule:nonzero;stroke:none"
             transform="matrix(1,0,0,-1,0,-12)"><tspan
               id="tspan382"
               y="0"
               x="0 9.9960003">M </tspan></text>
</g><g
           transform="matrix(7.874014e-5,0,0,-7.874014e-5,679.1059,427.0691)"
           id="g386"><path
             id="path388"
             style="fill:none;stroke:#d43a00;stroke-width:28575;stroke-linecap:butt;stroke-linejoin:miter;stroke-miterlimit:4;stroke-dasharray:85725, 28575;stroke-dashoffset:0;stroke-opacity:1"
             d="M 0.2055291,600377.1 C 0.2055291,268798.1 268797.8,0.08763367 600376.8,0.08763367 931955.9,0.08763367 1200754,268798.1 1200754,600377.1 1200754,931956.1 931955.9,1200754 600376.8,1200754 268797.8,1200754 0.2055291,931956.1 0.2055291,600377.1 Z" /></g><g
           transform="matrix(7.874014e-5,0,0,-7.874014e-5,612.7411,470.7079)"
           id="g390"><path
             id="path392"
             style="fill:none;stroke:#009d19;stroke-width:28575;stroke-linecap:butt;stroke-linejoin:miter;stroke-miterlimit:4;stroke-dasharray:85725, 28575;stroke-dashoffset:0;stroke-opacity:1"
             d="M 0.02537322,600377.1 C 0.02537322,268798 268797.6,0.04414958 600376.6,0.04414958 931955.7,0.04414958 1200754,268798 1200754,600377.1 1200754,931956.1 931955.7,1200754 600376.6,1200754 268797.6,1200754 0.02537322,931956.1 0.02537322,600377.1 Z" /></g></g></g></g></svg>