<?xml version="1.0" encoding="UTF-8" standalone="no"?>
<svg
   xmlns:dc="http://purl.org/dc/elements/1.1/"
   xmlns:cc="http://creativecommons.org/ns#"
   xmlns:rdf="http://www.w3.org/1999/02/22-rdf-syntax-ns#"
   xmlns:svg="http://www.w3.org/2000/svg"
   xmlns="http://www.w3.org/2000/svg"
   viewBox="0 0 1031.2484 534.07971"
   height="534.07971"
   width="1031.2484"
   xml:space="preserve"
   id="svg2"
   version="1.1"><metadata
     id="metadata8"><rdf:RDF><cc:Work
         rdf:about=""><dc:format>image/svg+xml</dc:format><dc:type
           rdf:resource="http://purl.org/dc/dcmitype/StillImage" /></cc:Work></rdf:RDF></metadata><defs
     id="defs6"><clipPath
       id="clipPath20"
       clipPathUnits="userSpaceOnUse"><path
         id="path18"
         d="M 0,0 H 1024 V 768 H 0 Z" /></clipPath></defs><g
     transform="matrix(1.3333333,0,0,-1.3333333,-151.06347,735.5084)"
     id="g10"><g
       id="g12" /><g
       id="g14"><g
         clip-path="url(#clipPath20)"
         id="g16"><path
           id="path22"
           style="fill:#ffffff;fill-opacity:1;fill-rule:evenodd;stroke:none"
           d="M 0,6.103516e-5 H 1024 V 767.99996 H 0 Z" /><g
           transform="matrix(7.874014e-5,0,0,-7.874014e-5,294.752,462.7473)"
           id="g24"><path
             id="path26"
             style="fill:none;stroke:#000000;stroke-width:19050;stroke-linecap:butt;stroke-linejoin:round;stroke-miterlimit:10;stroke-dasharray:19050, 57150;stroke-dashoffset:0;stroke-opacity:1"
             d="M -0.1196251,0.202642 C 278522.8,328629 557047,657259 815515.8,949126.1 1073986,1240993 1283435,1544000 1550817,1751203 c 267382,207203 534764,458967 868992,441143 334228,-17824 737529,-552542 1136373,-548086 398846,4456 902416,465650 1256697,574822 354281,109172 508025,-8912 868992,80208 360965,89120 1296804,454511 1296804,454511" /></g><g
           transform="matrix(7.874014e-5,0,0,-7.874014e-5,364.2292,392.6882)"
           id="g28"><path
             id="path30"
             style="fill:none;stroke:#f7a11e;stroke-width:38100;stroke-linecap:butt;stroke-linejoin:miter;stroke-miterlimit:4;stroke-dasharray:38100, 38100;stroke-dashoffset:0;stroke-opacity:1"
             d="m 1778326,305140.5 c 406889,406783 406889,1066402.5 0,1473185.5 -406783,406889 -1066402.5,406889 -1473185.5,0 -406889.2,-406783 -406889.2,-1066402.5 0,-1473185.5 406783,-406889.2 1066402.5,-406889.2 1473185.5,0 z" /></g><g
           transform="translate(74.99999,695.5139)"
           id="g32"><text
             id="text36"
             style="font-variant:normal;font-weight:300;font-size:79.18998718px;font-family:Helvetica;-inkscape-font-specification:Helvetica-Light;writing-mode:lr-tb;fill:#000000;fill-opacity:1;fill-rule:nonzero;stroke:none"
             transform="matrix(1,0,0,-1,8.122696,-79.18999)"><tspan
               id="tspan34"
               y="0"
               x="0 57.175171 101.2048 123.21963 167.24925 211.2789 233.29372 250.87389 294.90353 343.2886 365.30344 404.89841 426.91324 470.94287 519.32794 541.34277 558.92297 602.95258 646.98224 691.01184 713.02667 730.60687 774.63647 818.66614">Detecting stop locations</tspan></text>
</g><g
           transform="translate(74.99999,695.5139)"
           id="g38"><text
             id="text42"
             style="font-variant:normal;font-weight:300;font-size:79.18998718px;font-family:Helvetica;-inkscape-font-specification:Helvetica-Light;writing-mode:lr-tb;fill:#000000;fill-opacity:1;fill-rule:nonzero;stroke:none"
             transform="matrix(1,0,0,-1,866.3838,-79.18999)"><tspan
               id="tspan40"
               y="0"
               x="0">!</tspan></text>
</g><g
           transform="translate(505.9959,39.50005)"
           id="g44"><text
             id="text48"
             style="font-variant:normal;font-weight:300;font-size:18px;font-family:Helvetica;-inkscape-font-specification:Helvetica-Light;writing-mode:lr-tb;fill:#000000;fill-opacity:1;fill-rule:nonzero;stroke:none"
             transform="matrix(1,0,0,-1,0,-18)"><tspan
               id="tspan46"
               y="0"
               x="0">8</tspan></text>
</g><g
           transform="translate(505.9959,39.50005)"
           id="g50"><text
             id="text54"
             style="font-variant:normal;font-weight:300;font-size:18px;font-family:Helvetica;-inkscape-font-specification:Helvetica-Light;writing-mode:lr-tb;fill:#000000;fill-opacity:1;fill-rule:nonzero;stroke:none"
             transform="matrix(1,0,0,-1,10.008,-18)"><tspan
               id="tspan52"
               y="0"
               x="0">!</tspan></text>
</g><path
           id="path56"
           style="fill:#ef9c34;fill-opacity:1;fill-rule:evenodd;stroke:none"
           d="m 449.6931,310.9871 c 3.0599,-3.0591 3.0599,-8.0195 0,-11.0786 -3.059,-3.0599 -8.0195,-3.0599 -11.0786,0 -3.0599,3.0591 -3.0599,8.0195 0,11.0786 3.0591,3.0599 8.0196,3.0599 11.0786,0 z" /><g
           transform="matrix(7.874014e-5,0,0,-7.874014e-5,436.3198,313.2818)"
           id="g58"><path
             id="path60"
             style="fill:none;stroke:#000000;stroke-width:12700;stroke-linecap:butt;stroke-linejoin:miter;stroke-miterlimit:4;stroke-dasharray:none;stroke-opacity:1"
             d="m 169841.8,29142.84 c 38860.4,38850.35 38860.4,101848.06 0,140698.36 -38850.3,38860.5 -101848.42,38860.5 -140699.16,0 -38860.421,-38850.3 -38860.421,-101848.01 0,-140698.36 38850.74,-38860.429 101848.86,-38860.429 140699.16,0 z" /></g><path
           id="path62"
           style="fill:#007bcc;fill-opacity:1;fill-rule:evenodd;stroke:none"
           d="m 366.0475,393.5397 c 3.0599,-3.0591 3.0599,-8.0195 0,-11.0786 -3.0591,-3.0599 -8.0196,-3.0599 -11.0787,0 -3.0599,3.0591 -3.0599,8.0195 0,11.0786 3.0591,3.0599 8.0196,3.0599 11.0787,0 z" /><g
           transform="matrix(7.874014e-5,0,0,-7.874014e-5,352.6741,395.8344)"
           id="g64"><path
             id="path66"
             style="fill:none;stroke:#000000;stroke-width:12700;stroke-linecap:butt;stroke-linejoin:miter;stroke-miterlimit:4;stroke-dasharray:none;stroke-opacity:1"
             d="m 169841.8,29143 c 38860.4,38850.34 38860.4,101848.1 0,140698.4 -38850.4,38860.4 -101848.47,38860.4 -140699.21,0 -38860.421,-38850.3 -38860.421,-101848.06 0,-140698.4 38850.74,-38860.426 101848.81,-38860.426 140699.21,0 z" /></g><path
           id="path68"
           style="fill:#007bcc;fill-opacity:1;fill-rule:evenodd;stroke:none"
           d="m 303.5457,467.3784 c 3.0598,-3.0591 3.0598,-8.0195 0,-11.0786 -3.0591,-3.0599 -8.0196,-3.0599 -11.0787,0 -3.0598,3.0591 -3.0598,8.0195 0,11.0786 3.0591,3.0599 8.0196,3.0599 11.0787,0 z" /><g
           transform="matrix(7.874014e-5,0,0,-7.874014e-5,290.1723,469.6731)"
           id="g70"><path
             id="path72"
             style="fill:none;stroke:#000000;stroke-width:12700;stroke-linecap:butt;stroke-linejoin:miter;stroke-miterlimit:4;stroke-dasharray:none;stroke-opacity:1"
             d="m 169841.2,29142.68 c 38860.4,38850.34 38860.4,101848.02 0,140698.42 -38850.4,38860.4 -101848.11,38860.4 -140698.46,0 -38860.423,-38850.4 -38860.423,-101848.08 0,-140698.42 38850.35,-38860.426 101848.06,-38860.426 140698.46,0 z" /></g><g
           transform="translate(252.0728,460.6216)"
           id="g74"><text
             id="text78"
             style="font-variant:normal;font-weight:normal;font-size:14px;font-family:Arial;-inkscape-font-specification:ArialMT;writing-mode:lr-tb;fill:#000000;fill-opacity:1;fill-rule:nonzero;stroke:none"
             transform="matrix(1,0,0,-1,0,-14)"><tspan
               id="tspan76"
               y="0"
               x="0 7.7867999 15.5736">08:</tspan></text>
</g><g
           transform="translate(252.0728,460.6216)"
           id="g80"><text
             id="text84"
             style="font-variant:normal;font-weight:normal;font-size:14px;font-family:Arial;-inkscape-font-specification:ArialMT;writing-mode:lr-tb;fill:#000000;fill-opacity:1;fill-rule:nonzero;stroke:none"
             transform="matrix(1,0,0,-1,19.46191,-14)"><tspan
               id="tspan82"
               y="0"
               x="0 7.7867999 15.5736">24 </tspan></text>
</g><g
           transform="translate(317.2309,386.2948)"
           id="g86"><text
             id="text90"
             style="font-variant:normal;font-weight:normal;font-size:14px;font-family:Arial;-inkscape-font-specification:ArialMT;writing-mode:lr-tb;fill:#000000;fill-opacity:1;fill-rule:nonzero;stroke:none"
             transform="matrix(1,0,0,-1,0,-14)"><tspan
               id="tspan88"
               y="0"
               x="0 7.7867999 15.5736 19.468399 27.255199 35.042">08:25 </tspan></text>
</g><g
           transform="translate(372.5459,324.1896)"
           id="g92"><text
             id="text96"
             style="font-variant:normal;font-weight:normal;font-size:14px;font-family:Arial;-inkscape-font-specification:ArialMT;writing-mode:lr-tb;fill:#000000;fill-opacity:1;fill-rule:nonzero;stroke:none"
             transform="matrix(1,0,0,-1,0,-14)"><tspan
               id="tspan94"
               y="0"
               x="0 7.7867999 15.5736">08:</tspan></text>
</g><g
           transform="translate(372.5459,324.1896)"
           id="g98"><text
             id="text102"
             style="font-variant:normal;font-weight:normal;font-size:14px;font-family:Arial;-inkscape-font-specification:ArialMT;writing-mode:lr-tb;fill:#000000;fill-opacity:1;fill-rule:nonzero;stroke:none"
             transform="matrix(1,0,0,-1,19.46191,-14)"><tspan
               id="tspan100"
               y="0"
               x="0 7.7867999">26</tspan></text>
</g><g
           transform="translate(372.5459,324.1896)"
           id="g104" /><g
           transform="translate(400.1779,303.3475)"
           id="g106"><text
             id="text110"
             style="font-variant:normal;font-weight:normal;font-size:14px;font-family:Arial;-inkscape-font-specification:ArialMT;writing-mode:lr-tb;fill:#000000;fill-opacity:1;fill-rule:nonzero;stroke:none"
             transform="matrix(1,0,0,-1,0,-14)"><tspan
               id="tspan108"
               y="0"
               x="0 7.7867999 15.5736">08:</tspan></text>
</g><g
           transform="translate(400.1779,303.3475)"
           id="g112"><text
             id="text116"
             style="font-variant:normal;font-weight:normal;font-size:14px;font-family:Arial;-inkscape-font-specification:ArialMT;writing-mode:lr-tb;fill:#000000;fill-opacity:1;fill-rule:nonzero;stroke:none"
             transform="matrix(1,0,0,-1,19.46191,-14)"><tspan
               id="tspan114"
               y="0"
               x="0 7.7867999">36</tspan></text>
</g><g
           transform="translate(400.1779,303.3475)"
           id="g118" /><g
           transform="translate(444.3257,285.1828)"
           id="g120"><text
             id="text124"
             style="font-variant:normal;font-weight:normal;font-size:14px;font-family:Arial;-inkscape-font-specification:ArialMT;writing-mode:lr-tb;fill:#000000;fill-opacity:1;fill-rule:nonzero;stroke:none"
             transform="matrix(1,0,0,-1,0,-14)"><tspan
               id="tspan122"
               y="0"
               x="0 7.7867999 15.5736">08:</tspan></text>
</g><g
           transform="translate(444.3257,285.1828)"
           id="g126"><text
             id="text130"
             style="font-variant:normal;font-weight:normal;font-size:14px;font-family:Arial;-inkscape-font-specification:ArialMT;writing-mode:lr-tb;fill:#000000;fill-opacity:1;fill-rule:nonzero;stroke:none"
             transform="matrix(1,0,0,-1,19.46191,-14)"><tspan
               id="tspan128"
               y="0"
               x="0 7.7867999">46</tspan></text>
</g><g
           transform="translate(444.3257,285.1828)"
           id="g132" /><path
           id="path134"
           style="fill:#007bcc;fill-opacity:1;fill-rule:evenodd;stroke:none"
           d="m 581.5633,337.9618 c 3.0599,-3.0591 3.0599,-8.0195 0,-11.0786 -3.0591,-3.0599 -8.0195,-3.0599 -11.0786,0 -3.0599,3.0591 -3.0599,8.0195 0,11.0786 3.0591,3.0599 8.0195,3.0599 11.0786,0 z" /><g
           transform="matrix(7.874014e-5,0,0,-7.874014e-5,568.19,340.2565)"
           id="g136"><path
             id="path138"
             style="fill:none;stroke:#000000;stroke-width:12700;stroke-linecap:butt;stroke-linejoin:miter;stroke-miterlimit:4;stroke-dasharray:none;stroke-opacity:1"
             d="m 169840.5,29142.69 c 38860.4,38850.35 38860.4,101848.11 0,140698.41 -38850.4,38860.4 -101848.1,38860.4 -140698.45,0 -38860.422,-38850.3 -38860.422,-101848.06 0,-140698.41 38850.35,-38860.42 101848.05,-38860.42 140698.45,0 z" /></g><g
           transform="translate(531.3176,342.1784)"
           id="g140"><text
             id="text144"
             style="font-variant:normal;font-weight:normal;font-size:14px;font-family:Arial;-inkscape-font-specification:ArialMT;writing-mode:lr-tb;fill:#000000;fill-opacity:1;fill-rule:nonzero;stroke:none"
             transform="matrix(1,0,0,-1,0,-14)"><tspan
               id="tspan142"
               y="0"
               x="0 7.7867999 15.5736">09:</tspan></text>
</g><g
           transform="translate(531.3176,342.1784)"
           id="g146"><text
             id="text150"
             style="font-variant:normal;font-weight:normal;font-size:14px;font-family:Arial;-inkscape-font-specification:ArialMT;writing-mode:lr-tb;fill:#000000;fill-opacity:1;fill-rule:nonzero;stroke:none"
             transform="matrix(1,0,0,-1,19.46191,-14)"><tspan
               id="tspan148"
               y="0"
               x="0 7.7867999">00</tspan></text>
</g><g
           transform="translate(531.3176,342.1784)"
           id="g152" /><g
           transform="matrix(-7.874014e-5,0,0,-7.874014e-5,507.3944,438.5376)"
           id="g154"><path
             id="path156"
             style="fill:none;stroke:#f7a11e;stroke-width:38100;stroke-linecap:butt;stroke-linejoin:miter;stroke-miterlimit:4;stroke-dasharray:none;stroke-opacity:1"
             d="M 0.12484,0.2656736 679380.4,1489285" /></g><path
           id="path158"
           style="fill:#f7a11e;fill-opacity:1;fill-rule:evenodd;stroke:none"
           d="m 452.296,328.5976 0.3588,-10.0559 7.8295,6.3206 z" /><g
           transform="translate(26.98008,58.35003)"
           id="g160"><text
             id="text164"
             style="font-variant:normal;font-weight:300;font-size:16px;font-family:Helvetica;-inkscape-font-specification:Helvetica-Light;writing-mode:lr-tb;fill:#a6aaa9;fill-opacity:1;fill-rule:nonzero;stroke:none"
             transform="matrix(1,0,0,-1,221.1556,-16)"><tspan
               id="tspan162"
               y="0"
               x="0 13.328 22.224001 26.672001 30.224001 38.223999 47.119999 51.568001 55.119999 64.015999">Motivation</tspan></text>
</g><g
           transform="translate(26.98008,58.35003)"
           id="g166" /><g
           transform="translate(26.98008,58.35003)"
           id="g168"><text
             id="text172"
             style="font-variant:normal;font-weight:300;font-size:16px;font-family:Helvetica;-inkscape-font-specification:Helvetica-Light;writing-mode:lr-tb;fill:#a6aaa9;fill-opacity:1;fill-rule:nonzero;stroke:none"
             transform="matrix(1,0,0,-1,298.515,-16)"><tspan
               id="tspan170"
               y="0"
               x="0 5.3280001 9.776 19.552 24.879999 33.776001 41.776001 45.327999 54.223999 63.119999 71.120003 75.568001 86.239998 95.136002 103.136 112.032 120.928 126.256 135.15199 144.048 148.496 153.82401">- Previous Research - </tspan></text>
</g><g
           transform="translate(26.98008,58.35003)"
           id="g174"><text
             id="text178"
             style="font-variant:normal;font-weight:300;font-size:16px;font-family:Helvetica;-inkscape-font-specification:Helvetica-Light;writing-mode:lr-tb;fill:#53585f;fill-opacity:1;fill-rule:nonzero;stroke:#53585f;stroke-width:0.384;stroke-linecap:butt;stroke-linejoin:miter;stroke-miterlimit:10;stroke-dasharray:none;stroke-opacity:1"
             transform="matrix(1,0,0,-1,456.786,-16)"><tspan
               id="tspan176"
               y="0"
               x="0 10.672 19.568001 28.464001 36.464001 46.240002 51.568001 60.464001 69.360001 78.255997">Background</tspan></text>
</g><g
           transform="translate(26.98008,58.35003)"
           id="g180"><text
             id="text184"
             style="font-variant:normal;font-weight:300;font-size:16px;font-family:Helvetica;-inkscape-font-specification:Helvetica-Light;writing-mode:lr-tb;fill:#a6aaa9;fill-opacity:1;fill-rule:nonzero;stroke:none"
             transform="matrix(1,0,0,-1,549.2655,-16)"><tspan
               id="tspan182"
               y="0"
               x="0 5.3280001 9.776 20.448 29.344 37.344002 46.240002 49.792 54.240002 62.240002 66.688004 72.015999 76.463997 85.360001 94.255997 99.584 104.032 112.928 121.824 127.152 131.60001 142.272 151.168 159.168 168.064 176.96001 182.28799 191.18401 200.08">- Results - Further Research </tspan></text>
</g><g
           transform="translate(26.98008,58.35003)"
           id="g186"><text
             id="text190"
             style="font-variant:normal;font-weight:300;font-size:16px;font-family:Helvetica;-inkscape-font-specification:Helvetica-Light;writing-mode:lr-tb;fill:#a6aaa9;fill-opacity:1;fill-rule:nonzero;stroke:none"
             transform="matrix(1,0,0,-1,753.7935,-16)"><tspan
               id="tspan188"
               y="0"
               x="0">!</tspan></text>
</g><g
           transform="matrix(7.874014e-5,0,0,7.874014e-5,338.9648,282.7535)"
           id="g192"><path
             id="path194"
             style="fill:none;stroke:#666b72;stroke-width:25400;stroke-linecap:butt;stroke-linejoin:miter;stroke-miterlimit:4;stroke-dasharray:none;stroke-opacity:1"
             d="M -0.09748089,0.0107491 374334.9,401039.2" /></g><g
           transform="matrix(7.874014e-5,0,0,7.874014e-5,343.1754,274.3327)"
           id="g196"><path
             id="path198"
             style="fill:none;stroke:#666b72;stroke-width:25400;stroke-linecap:butt;stroke-linejoin:miter;stroke-miterlimit:4;stroke-dasharray:none;stroke-opacity:1"
             d="M -0.1711661,-0.00313431 1243326,1.934732" /></g><g
           transform="translate(175.0011,288.2211)"
           id="g200"><text
             id="text204"
             style="font-variant:normal;font-weight:normal;font-size:18px;font-family:Arial;-inkscape-font-specification:ArialMT;writing-mode:lr-tb;fill:#000000;fill-opacity:1;fill-rule:nonzero;stroke:none"
             transform="matrix(1,0,0,-1,0,-18)"><tspan
               id="tspan202"
               y="0"
               x="0 10.0116 20.023199">20 </tspan></text>
</g><g
           transform="translate(175.0011,288.2211)"
           id="g206"><text
             id="text210"
             style="font-variant:normal;font-weight:normal;font-size:18px;font-family:Arial;-inkscape-font-specification:ArialMT;writing-mode:lr-tb;fill:#000000;fill-opacity:1;fill-rule:nonzero;stroke:none"
             transform="matrix(1,0,0,-1,25.02246,-18)"><tspan
               id="tspan208"
               y="0"
               x="0 14.994 18.993601 29.005199 39.0168 44.0172 54.028801 59.029202 64.029602 68.029198 83.023201 93.034798 98.035202 108.0468 118.0584 128.07001">minute time gap </tspan></text>
</g><g
           transform="translate(526.6546,39.50005)"
           id="g212"><text
             id="text216"
             style="font-variant:normal;font-weight:300;font-size:18px;font-family:Helvetica;-inkscape-font-specification:Helvetica-Light;writing-mode:lr-tb;fill:#000000;fill-opacity:1;fill-rule:nonzero;stroke:none"
             transform="matrix(1,0,0,-1,0,-18)"><tspan
               id="tspan214"
               y="0"
               x="0 5.0040002 10.008 20.016001">/ 24</tspan></text>
</g><g
           transform="translate(526.6546,39.50005)"
           id="g218"><text
             id="text222"
             style="font-variant:normal;font-weight:300;font-size:18px;font-family:Helvetica;-inkscape-font-specification:Helvetica-Light;writing-mode:lr-tb;fill:#000000;fill-opacity:1;fill-rule:nonzero;stroke:none"
             transform="matrix(1,0,0,-1,30.024,-18)"><tspan
               id="tspan220"
               y="0"
               x="0">!</tspan></text>
</g><path
           id="path224"
           style="fill:#ffffff;fill-opacity:1;fill-rule:evenodd;stroke:none"
           d="M 602.9189,407.6603 H 865.3075 V 522.4397 H 602.9189 Z" /><g
           transform="matrix(7.874014e-5,0,0,-7.874014e-5,602.9189,522.4396)"
           id="g226"><path
             id="path228"
             style="fill:none;stroke:#000000;stroke-width:6350;stroke-linecap:butt;stroke-linejoin:miter;stroke-miterlimit:4;stroke-dasharray:none;stroke-opacity:1"
             d="M 0.00789821,0.09948313 H 3332336 V 1457698.1 H 0.00789821 Z" /></g><g
           transform="translate(605.7535,519.05)"
           id="g230"><text
             id="text234"
             style="font-variant:normal;font-weight:normal;font-size:18px;font-family:Arial;-inkscape-font-specification:ArialMT;writing-mode:lr-tb;fill:#000000;fill-opacity:1;fill-rule:nonzero;stroke:none"
             transform="matrix(1,0,0,-1,0,-18)"><tspan
               id="tspan232"
               y="0"
               x="0 12.006 17.006399 21.006001 31.017599 40.017601 50.029202 55.029598 59.029202 69.040802 79.052399 84.052803 97.052399 107.064 117.0756 123.0696 133.08121 138.0816 148.0932 153.0936 163.10519 172.10519 182.11681 188.11079 193.11121 203.1228 213.1344 222.1344">A location where a user has </tspan></text>
</g><g
           transform="translate(605.7535,498.05)"
           id="g236"><text
             id="text240"
             style="font-variant:normal;font-weight:normal;font-size:18px;font-family:Arial;-inkscape-font-specification:ArialMT;writing-mode:lr-tb;fill:#000000;fill-opacity:1;fill-rule:nonzero;stroke:none"
             transform="matrix(1,0,0,-1,0,-18)"><tspan
               id="tspan238"
               y="0"
               x="0 9 14.0004 24.011999 33.012001 43.023602 53.035198 58.035599 63.035999 74.030403 84.042 94.053596 99.054001 109.0656 118.0656 128.07719 134.0712 139.07159 154.0656 164.07719 173.07719 178.07761 183.078 192.078 197.0784 207.09 216.09">stayed. The user must stay </tspan></text>
</g><g
           transform="translate(605.7535,476.05)"
           id="g242"><text
             id="text246"
             style="font-variant:normal;font-weight:normal;font-size:18px;font-family:Arial;-inkscape-font-specification:ArialMT;writing-mode:lr-tb;fill:#000000;fill-opacity:1;fill-rule:nonzero;stroke:none"
             transform="matrix(1,0,0,-1,0,-18)"><tspan
               id="tspan244"
               y="0"
               x="0 12.9996 16.999201 21.999599 32.0112 36.010799 46.0224 51.0228 56.023201 66.034798 76.046402 81.046799 87.040802 97.052399 107.064 122.058 126.0576 136.0692 146.0808 151.08121 161.0928 165.09241 174.09241 179.0928 189.1044 199.116 208.116 218.12759 223.12801 233.1396 238.14">within the roaming distance of </tspan></text>
</g><g
           transform="translate(605.7535,455.05)"
           id="g248"><text
             id="text252"
             style="font-variant:normal;font-weight:normal;font-size:18px;font-family:Arial;-inkscape-font-specification:ArialMT;writing-mode:lr-tb;fill:#000000;fill-opacity:1;fill-rule:nonzero;stroke:none"
             transform="matrix(1,0,0,-1,0,-18)"><tspan
               id="tspan250"
               y="0"
               x="0 10.0116 20.023199 25.0236 40.017601 50.029202 55.029598 65.041199 71.035202 80.035202 85.035599 90.036003 100.0476 106.0416 111.042 121.0536 126.054 131.0544 135.054 145.0656 155.07719 164.07719 169.07761 174.078 184.0896 194.1012">50 meters for at least 15 </tspan></text>
</g><g
           transform="translate(605.7535,433.05)"
           id="g254"><text
             id="text258"
             style="font-variant:normal;font-weight:normal;font-size:18px;font-family:Arial;-inkscape-font-specification:ArialMT;writing-mode:lr-tb;fill:#000000;fill-opacity:1;fill-rule:nonzero;stroke:none"
             transform="matrix(1,0,0,-1,0,-18)"><tspan
               id="tspan256"
               y="0"
               x="0 14.994 18.993601 29.005199 39.0168 44.0172 54.028801 63.028801 68.029198 74.023201 84.535202 89.535599 98.535599 103.536 113.5476 122.5476 127.548 137.5596 147.5712 153.5652 163.5768 168.57719 172.5768 182.58839 192.60001 198.59399">minutes (= stay duration).</tspan></text>
</g><g
           transform="translate(605.7535,433.05)"
           id="g260" /><path
           id="path262"
           style="fill:#ef9c34;fill-opacity:1;fill-rule:evenodd;stroke:none"
           d="m 441.9909,447.4886 h 147.1553 v 34.80591 H 441.9909 Z" /><g
           transform="matrix(7.874014e-5,0,0,-7.874014e-5,441.9909,482.2946)"
           id="g264"><path
             id="path266"
             style="fill:none;stroke:#000000;stroke-width:6350;stroke-linecap:butt;stroke-linejoin:miter;stroke-miterlimit:4;stroke-dasharray:none;stroke-opacity:1"
             d="M -0.02113599,0.2010849 H 1868873 V 442035.3 H -0.02113599 Z" /></g><g
           transform="translate(445.8255,479.2916)"
           id="g268"><text
             id="text272"
             style="font-variant:normal;font-weight:normal;font-size:24px;font-family:Arial;-inkscape-font-specification:ArialMT;writing-mode:lr-tb;fill:#ffffff;fill-opacity:1;fill-rule:nonzero;stroke:none"
             transform="matrix(1,0,0,-1,0,-24)"><tspan
               id="tspan270"
               y="0"
               x="0 16.007999 22.6752 36.023998 49.372799 56.040001 61.372799 74.721603 86.721603 100.0704 106.7376 112.0704 125.4192">Stop location</tspan></text>
</g><g
           transform="translate(445.8255,479.2916)"
           id="g274" /><path
           id="path276"
           style="fill:#007bcc;fill-opacity:1;fill-rule:evenodd;stroke:none"
           d="m 419.7345,332.4892 c 3.0599,-3.0591 3.0599,-8.0195 0,-11.0786 -3.0591,-3.0599 -8.0195,-3.0599 -11.0786,0 -3.0599,3.0591 -3.0599,8.0195 0,11.0786 3.0591,3.0599 8.0195,3.0599 11.0786,0 z" /><g
           transform="matrix(7.874014e-5,0,0,-7.874014e-5,406.3611,334.7839)"
           id="g278"><path
             id="path280"
             style="fill:none;stroke:#000000;stroke-width:12700;stroke-linecap:butt;stroke-linejoin:miter;stroke-miterlimit:4;stroke-dasharray:none;stroke-opacity:1"
             d="m 169841.8,29142.66 c 38860.4,38850.36 38860.4,101848.04 0,140698.44 -38850.3,38860.4 -101848.43,38860.4 -140699.17,0 -38860.42,-38850.4 -38860.42,-101848.08 0,-140698.44 38850.74,-38860.421 101848.87,-38860.421 140699.17,0 z" /></g><path
           id="path282"
           style="fill:#007bcc;fill-opacity:1;fill-rule:evenodd;stroke:none"
           d="m 487.1064,297.7535 c 3.0599,-3.059 3.0599,-8.0195 0,-11.0786 -3.0591,-3.0598 -8.0196,-3.0598 -11.0787,0 -3.0599,3.0591 -3.0599,8.0196 0,11.0786 3.0591,3.0599 8.0196,3.0599 11.0787,0 z" /><g
           transform="matrix(7.874014e-5,0,0,-7.874014e-5,473.733,300.0482)"
           id="g284"><path
             id="path286"
             style="fill:none;stroke:#000000;stroke-width:12700;stroke-linecap:butt;stroke-linejoin:miter;stroke-miterlimit:4;stroke-dasharray:none;stroke-opacity:1"
             d="m 169842,29142.96 c 38860.5,38850.34 38860.5,101848.04 0,140698.44 -38850.3,38860.4 -101848.42,38860.4 -140699.15,0 -38860.428,-38850.4 -38860.428,-101848.1 0,-140698.44 38850.73,-38860.425 101848.85,-38860.425 140699.15,0 z" /></g><path
           id="path288"
           style="fill:#007bcc;fill-opacity:1;fill-rule:evenodd;stroke:none"
           d="m 660.5147,304.2787 c 3.0599,-3.0591 3.0599,-8.0195 0,-11.0786 -3.0591,-3.0599 -8.0195,-3.0599 -11.0786,0 -3.0599,3.0591 -3.0599,8.0195 0,11.0786 3.0591,3.0599 8.0195,3.0599 11.0786,0 z" /><g
           transform="matrix(7.874014e-5,0,0,-7.874014e-5,647.1414,306.5734)"
           id="g290"><path
             id="path292"
             style="fill:none;stroke:#000000;stroke-width:12700;stroke-linecap:butt;stroke-linejoin:miter;stroke-miterlimit:4;stroke-dasharray:none;stroke-opacity:1"
             d="m 169840.6,29142.84 c 38860.4,38850.35 38860.4,101848.06 0,140698.36 -38850.4,38860.5 -101848.06,38860.5 -140698.41,0 -38860.424,-38850.3 -38860.424,-101848.01 0,-140698.36 38850.35,-38860.428 101848.01,-38860.428 140698.41,0 z" /></g><g
           transform="translate(608.1635,306.39)"
           id="g294"><text
             id="text298"
             style="font-variant:normal;font-weight:normal;font-size:14px;font-family:Arial;-inkscape-font-specification:ArialMT;writing-mode:lr-tb;fill:#000000;fill-opacity:1;fill-rule:nonzero;stroke:none"
             transform="matrix(1,0,0,-1,0,-14)"><tspan
               id="tspan296"
               y="0"
               x="0 7.7867999 15.5736">09:</tspan></text>
</g><g
           transform="translate(608.1635,306.39)"
           id="g300"><text
             id="text304"
             style="font-variant:normal;font-weight:normal;font-size:14px;font-family:Arial;-inkscape-font-specification:ArialMT;writing-mode:lr-tb;fill:#000000;fill-opacity:1;fill-rule:nonzero;stroke:none"
             transform="matrix(1,0,0,-1,19.46191,-14)"><tspan
               id="tspan302"
               y="0"
               x="0 7.7867999">03</tspan></text>
</g><g
           transform="translate(608.1635,306.39)"
           id="g306" /><g
           transform="translate(331.0367,221.1289)"
           id="g308"><text
             id="text312"
             style="font-variant:normal;font-weight:normal;font-size:18px;font-family:Arial;-inkscape-font-specification:ArialMT;writing-mode:lr-tb;fill:#000000;fill-opacity:1;fill-rule:nonzero;stroke:none"
             transform="matrix(1,0,0,-1,0,-18)"><tspan
               id="tspan310"
               y="0"
               x="0 12.9996 23.0112 33.0228 48.0168 52.016399 62.028 72.039597 77.040001 87.051598 91.051201 100.0512 105.0516 115.0632 125.0748 134.0748 144.0864 149.08681 159.5988 164.5992 174.61079 184.62241 189.6228 204.61681 214.6284 219.6288 229.6404 235.6344">Roaming distance = 50 meter </tspan></text>
</g><g
           transform="translate(342.0367,200.1289)"
           id="g314"><text
             id="text318"
             style="font-variant:normal;font-weight:normal;font-size:18px;font-family:Arial;-inkscape-font-specification:ArialMT;writing-mode:lr-tb;fill:#000000;fill-opacity:1;fill-rule:nonzero;stroke:none"
             transform="matrix(1,0,0,-1,0,-18)"><tspan
               id="tspan316"
               y="0"
               x="0 12.006 17.006399 27.018 36.018002 41.018398 51.029999 61.041599 67.035599 77.047203 82.0476 86.047203 96.0588 106.0704 111.0708 121.5828 126.5832 136.5948 146.6064 151.6068 166.6008 170.6004 180.612 190.6236 195.62399 205.6356 214.6356">Stay duration = 15 minutes </tspan></text>
</g><path
           id="path320"
           style="fill:#007bcc;fill-opacity:1;fill-rule:evenodd;stroke:none"
           d="m 728.9393,287.4372 c 3.0599,-3.0591 3.0599,-8.0195 0,-11.0786 -3.0591,-3.0599 -8.0195,-3.0599 -11.0786,0 -3.0599,3.0591 -3.0599,8.0195 0,11.0786 3.0591,3.0599 8.0195,3.0599 11.0786,0 z" /><g
           transform="matrix(7.874014e-5,0,0,-7.874014e-5,715.566,289.7319)"
           id="g322"><path
             id="path324"
             style="fill:none;stroke:#000000;stroke-width:12700;stroke-linecap:butt;stroke-linejoin:miter;stroke-miterlimit:4;stroke-dasharray:none;stroke-opacity:1"
             d="m 169840.9,29142.81 c 38860.5,38850.35 38860.5,101848.09 0,140698.39 -38850.3,38860.5 -101848.03,38860.5 -140698.38,0 -38860.427,-38850.3 -38860.427,-101848.04 0,-140698.39 38850.35,-38860.42 101848.08,-38860.42 140698.38,0 z" /></g><path
           id="path326"
           style="fill:#007bcc;fill-opacity:1;fill-rule:evenodd;stroke:none"
           d="m 819.4703,264.2801 c 3.0599,-3.0591 3.0599,-8.0195 0,-11.0786 -3.0591,-3.0599 -8.0196,-3.0599 -11.0786,0 -3.0599,3.0591 -3.0599,8.0195 0,11.0786 3.059,3.0599 8.0195,3.0599 11.0786,0 z" /><g
           transform="matrix(7.874014e-5,0,0,-7.874014e-5,806.097,266.5748)"
           id="g328"><path
             id="path330"
             style="fill:none;stroke:#000000;stroke-width:12700;stroke-linecap:butt;stroke-linejoin:miter;stroke-miterlimit:4;stroke-dasharray:none;stroke-opacity:1"
             d="m 169841.1,29142.84 c 38860.4,38850.35 38860.4,101848.06 0,140698.16 -38850.3,38860.5 -101848.06,38860.5 -140698.41,0 -38860.42,-38850.1 -38860.42,-101847.81 0,-140698.16 38850.35,-38860.428 101848.11,-38860.428 140698.41,0 z" /></g><g
           transform="translate(677.6409,279.0227)"
           id="g332"><text
             id="text336"
             style="font-variant:normal;font-weight:normal;font-size:14px;font-family:Arial;-inkscape-font-specification:ArialMT;writing-mode:lr-tb;fill:#000000;fill-opacity:1;fill-rule:nonzero;stroke:none"
             transform="matrix(1,0,0,-1,0,-14)"><tspan
               id="tspan334"
               y="0"
               x="0 7.7867999 15.5736">09:</tspan></text>
</g><g
           transform="translate(677.6409,279.0227)"
           id="g338"><text
             id="text342"
             style="font-variant:normal;font-weight:normal;font-size:14px;font-family:Arial;-inkscape-font-specification:ArialMT;writing-mode:lr-tb;fill:#000000;fill-opacity:1;fill-rule:nonzero;stroke:none"
             transform="matrix(1,0,0,-1,19.46191,-14)"><tspan
               id="tspan340"
               y="0"
               x="0 7.7867999">05</tspan></text>
</g><g
           transform="translate(677.6409,279.0227)"
           id="g344" /><g
           transform="translate(766.0664,262.1811)"
           id="g346"><text
             id="text350"
             style="font-variant:normal;font-weight:normal;font-size:14px;font-family:Arial;-inkscape-font-specification:ArialMT;writing-mode:lr-tb;fill:#000000;fill-opacity:1;fill-rule:nonzero;stroke:none"
             transform="matrix(1,0,0,-1,0,-14)"><tspan
               id="tspan348"
               y="0"
               x="0 7.7867999 15.5736">09:</tspan></text>
</g><g
           transform="translate(766.0664,262.1811)"
           id="g352"><text
             id="text356"
             style="font-variant:normal;font-weight:normal;font-size:14px;font-family:Arial;-inkscape-font-specification:ArialMT;writing-mode:lr-tb;fill:#000000;fill-opacity:1;fill-rule:nonzero;stroke:none"
             transform="matrix(1,0,0,-1,19.46191,-14)"><tspan
               id="tspan354"
               y="0"
               x="0 7.7867999">06</tspan></text>
</g><g
           transform="translate(766.0664,262.1811)"
           id="g358" /></g></g></g></svg>